<?xml version="1.0" encoding="iso-8859-1"?>
<!-- Uploaded to: SVG Repo, www.svgrepo.com, Generator: SVG Repo Mixer Tools -->
<svg fill="#000000" version="1.1" id="Layer_1" xmlns="http://www.w3.org/2000/svg" xmlns:xlink="http://www.w3.org/1999/xlink" 
	 viewBox="0 0 512.002 512.002" xml:space="preserve">
<g>
	<g>
		<path d="M364.877,332.63H335.83c2.693-4.69,7.742-7.862,13.528-7.862v-15.478c-9.211,0-17.496,4.032-23.192,10.42v-18.208h-15.478
			v18.642c-5.704-6.638-14.151-10.855-23.568-10.855v15.478c5.786,0,10.833,3.172,13.528,7.862h-37.423v-38.981h39.456
			c25.716,0,46.638-20.922,46.638-46.638v-7.739H294.9c-12.034,0-23.018,4.582-31.299,12.093c-0.086-1.175-0.205-2.342-0.377-3.492
			v-39.803h39.456c25.716,0,46.638-20.922,46.638-46.639v-7.739H294.9c-12.22,0-23.352,4.73-31.676,12.448v-43.649h39.456
			c25.716,0,46.638-20.922,46.638-46.639v-7.739H294.9c-3.104,0-6.136,0.312-9.073,0.893c0.81-2.766,1.253-5.689,1.253-8.713
			c0-14.566-20.584-45.103-24.711-51.078L256,0l-6.368,9.219c-4.126,5.974-24.711,36.512-24.711,51.078
			c0,3.024,0.443,5.947,1.253,8.713c-2.937-0.581-5.968-0.893-9.073-0.893h-54.418v7.739c0,25.717,20.922,46.639,46.638,46.639
			h38.424v27.168c-8.202-7.168-18.921-11.526-30.644-11.526h-54.418v7.739c0,25.716,20.922,46.638,46.638,46.638h38.424v27.167
			c-8.202-7.168-18.921-11.526-30.644-11.526h-54.418v7.739c0,25.716,20.922,46.638,46.638,46.638h38.424v70.101h-36.391
			c2.693-4.69,7.742-7.862,13.528-7.862v-15.478c-9.418,0-17.864,4.216-23.568,10.855v-18.642h-15.478v18.208
			c-5.696-6.387-13.981-10.42-23.192-10.42v15.478c5.786,0,10.833,3.172,13.528,7.862h-29.047v46.597h7.755v23.397h8.783
			l15.607,109.376h153.464l15.588-109.376h8.801v-23.397h7.755L364.877,332.63L364.877,332.63z M294.899,254.75h37.968
			c-3.451,13.45-15.677,23.421-30.188,23.421h-37.968C268.162,264.721,280.388,254.75,294.899,254.75z M294.899,169.172h37.968
			c-3.449,13.451-15.676,23.422-30.188,23.422h-37.968C268.161,179.143,280.387,169.172,294.899,169.172z M209.321,177.034
			c-14.511,0-26.737-9.972-30.188-23.421h37.968c14.511,0,26.737,9.972,30.188,23.421H209.321z M209.321,247.052
			c-14.511,0-26.737-9.972-30.188-23.421h37.968c14.511,0,26.737,9.972,30.188,23.421H209.321z M294.899,83.595h37.968
			c-3.45,13.451-15.676,23.421-30.188,23.421h-37.968C268.16,93.565,280.387,83.595,294.899,83.595z M209.321,107.015
			c-14.512,0-26.738-9.971-30.188-23.422h37.968c14.512,0,26.738,9.971,30.188,23.422H209.321z M240.399,60.296
			c0-5.163,7.284-19.304,15.601-32.587c8.318,13.282,15.601,27.422,15.601,32.586c0,5.996-3.404,11.204-8.378,13.814V60.05h-15.478
			v13.459C243.342,70.748,240.399,65.865,240.399,60.296z M341.644,387.146h-23.733v15.478h14.776l-13.383,93.898H192.695
			l-13.399-93.898h14.793v-15.478h-23.733v-7.919h171.287V387.146z M349.399,363.75H162.601v-15.642h186.798V363.75z"/>
	</g>
</g>
<g>
	<g>
		<rect x="209.569" y="387.15" width="92.867" height="15.478"/>
	</g>
</g>
</svg>